<svg width="18" height="18" viewBox="0 0 18 18" fill="none" xmlns="http://www.w3.org/2000/svg">
<path d="M10.705 0.868334L7.24834 0.860001H7.24667C3.60167 0.860001 0.746674 3.71583 0.746674 7.36167C0.746674 10.7767 3.40167 13.3667 6.96751 13.5033V16.6933C6.96751 16.7833 7.00417 16.9317 7.06751 17.0292C7.18584 17.2167 7.38751 17.3183 7.59417 17.3183C7.70917 17.3183 7.82501 17.2867 7.92917 17.22C8.14917 17.08 13.3233 13.77 14.6692 12.6317C16.2542 11.29 17.2025 9.32333 17.205 7.37167V7.3575C17.2 3.71833 14.3467 0.868334 10.705 0.8675V0.868334ZM13.8608 11.6783C12.9158 12.4783 9.80917 14.5158 8.21751 15.5475V12.8917C8.21751 12.5467 7.93834 12.2667 7.59251 12.2667H7.26251C4.21251 12.2667 1.99751 10.2033 1.99751 7.36167C1.99751 4.41667 4.30417 2.11 7.24751 2.11L10.7033 2.11833H10.705C13.6483 2.11833 15.955 4.42333 15.9567 7.365C15.9542 8.95667 15.1717 10.5683 13.8617 11.6783H13.8608Z" fill="white"/>
</svg>
