<svg width="24" height="24" viewBox="0 0 24 24" fill="none" xmlns="http://www.w3.org/2000/svg">
<path d="M11.9999 10.5268H21.7098C21.8169 11.125 21.8705 11.6964 21.8705 12.2411C21.8705 14.1786 21.4642 15.9085 20.6517 17.4308C19.8392 18.9531 18.6808 20.1429 17.1763 21C15.6718 21.8572 13.9464 22.2857 11.9999 22.2857C10.5982 22.2857 9.26334 22.0156 7.99548 21.4755C6.72763 20.9353 5.63388 20.2054 4.71423 19.2857C3.79459 18.3661 3.06468 17.2723 2.5245 16.0045C1.98432 14.7366 1.71423 13.4018 1.71423 12C1.71423 10.5982 1.98432 9.2634 2.5245 7.99554C3.06468 6.72769 3.79459 5.63394 4.71423 4.71429C5.63388 3.79465 6.72763 3.06474 7.99548 2.52456C9.26334 1.98438 10.5982 1.71429 11.9999 1.71429C14.6785 1.71429 16.9776 2.61162 18.8973 4.40626L16.0982 7.09822C14.9999 6.03572 13.6339 5.50447 11.9999 5.50447C10.8482 5.50447 9.78343 5.79465 8.80575 6.37501C7.82807 6.95537 7.05352 7.74331 6.48209 8.73885C5.91066 9.73438 5.62495 10.8214 5.62495 12C5.62495 13.1786 5.91066 14.2656 6.48209 15.2612C7.05352 16.2567 7.82807 17.0447 8.80575 17.625C9.78343 18.2054 10.8482 18.4955 11.9999 18.4955C12.7767 18.4955 13.491 18.3884 14.1428 18.1741C14.7946 17.9598 15.3303 17.692 15.7499 17.3705C16.1696 17.0491 16.5357 16.683 16.8482 16.2723C17.1607 15.8616 17.3906 15.4732 17.5379 15.1072C17.6852 14.7411 17.7857 14.3929 17.8392 14.0625H11.9999V10.5268Z" fill="white"/>
</svg>
