<svg
  width="33"
  height="31"
  viewBox="0 0 33 31"
  fill="none"
  xmlns="http://www.w3.org/2000/svg"
>
    <path
      d="M11.1646 30.2812H5.22206C2.26549 30.2812 0.838684 29.0025 0.838684 26.3625V4.6375C0.838684 1.9975 2.2802 0.71875 5.22206 0.71875H11.1646C14.1212 0.71875 15.548 1.9975 15.548 4.6375V26.3625C15.548 29.0025 14.1065 30.2812 11.1646 30.2812ZM5.22206 2.78125C3.35398 2.78125 3.04508 3.24875 3.04508 4.6375V26.3625C3.04508 27.7512 3.35398 28.2188 5.22206 28.2188H11.1646C13.0327 28.2188 13.3416 27.7512 13.3416 26.3625V4.6375C13.3416 3.24875 13.0327 2.78125 11.1646 2.78125H5.22206Z"
      fill="white"
    />
    <path
      d="M28.0803 17.9062H22.1377C19.1811 17.9062 17.7543 16.6275 17.7543 13.9875V4.6375C17.7543 1.9975 19.1958 0.71875 22.1377 0.71875H28.0803C31.0368 0.71875 32.4636 1.9975 32.4636 4.6375V13.9875C32.4636 16.6275 31.0221 17.9062 28.0803 17.9062ZM22.1377 2.78125C20.2696 2.78125 19.9607 3.24875 19.9607 4.6375V13.9875C19.9607 15.3762 20.2696 15.8438 22.1377 15.8438H28.0803C29.9483 15.8438 30.2572 15.3762 30.2572 13.9875V4.6375C30.2572 3.24875 29.9483 2.78125 28.0803 2.78125H22.1377Z"
      fill="white"
    />
    <path
      d="M28.0803 30.2812H22.1377C19.1811 30.2812 17.7543 29.0025 17.7543 26.3625V23.8875C17.7543 21.2475 19.1958 19.9688 22.1377 19.9688H28.0803C31.0368 19.9688 32.4636 21.2475 32.4636 23.8875V26.3625C32.4636 29.0025 31.0221 30.2812 28.0803 30.2812ZM22.1377 22.0312C20.2696 22.0312 19.9607 22.4988 19.9607 23.8875V26.3625C19.9607 27.7512 20.2696 28.2188 22.1377 28.2188H28.0803C29.9483 28.2188 30.2572 27.7512 30.2572 26.3625V23.8875C30.2572 22.4988 29.9483 22.0312 28.0803 22.0312H22.1377Z"
      fill="white"
    />
</svg>
