            <svg
              width="29"
              height="31"
              viewBox="0 0 29 31"
              fill="none"
              xmlns="http://www.w3.org/2000/svg"
            >
              <path
                d="M13.0909 30.1465C12.3849 30.1465 11.6936 29.9815 11.0465 29.6515C10.4171 29.3317 9.89205 28.8587 9.52694 28.2825C9.16183 27.7064 8.97027 27.0486 8.97258 26.379V19.0915C8.97258 18.404 8.4872 17.3728 8.03125 16.8503L2.53033 11.4053C1.6037 10.539 0.897705 9.054 0.897705 7.94025V4.77775C0.897705 2.57775 2.67741 0.859001 4.9425 0.859001H24.3575C26.5932 0.859001 28.4023 2.55025 28.4023 4.64025V7.66525C28.4023 9.109 27.4757 10.7453 26.6079 11.5565L20.2392 16.8228C19.6214 17.304 19.136 18.3628 19.136 19.2153V25.1278C19.136 26.3515 18.3124 27.7678 17.2828 28.3453L15.253 29.569C14.5912 29.954 13.841 30.1465 13.0909 30.1465ZM4.9425 2.9215C3.91291 2.9215 3.10396 3.73275 3.10396 4.77775V7.94025C3.10396 8.449 3.5452 9.439 4.10412 9.9615L9.708 15.4753C10.4581 16.3415 11.1935 17.7853 11.1935 19.0778V26.3653C11.1935 27.259 11.8554 27.699 12.1349 27.8365C12.7526 28.1528 13.5027 28.1528 14.0764 27.8228L16.1208 26.599C16.5327 26.3653 16.9445 25.6228 16.9445 25.1278V19.2153C16.9445 17.744 17.7093 16.1215 18.8125 15.2552L25.1076 10.044C25.6077 9.5765 26.2107 8.46275 26.2107 7.6515V4.64025C26.2107 3.6915 25.3871 2.9215 24.3722 2.9215H4.9425Z"
                fill="white"
              />
            </svg>