<svg width="33" height="29" viewBox="0 0 33 29" fill="none" xmlns="http://www.w3.org/2000/svg">
<path d="M10.7667 28.6914C10.3549 28.6914 9.92831 28.5951 9.5459 28.4026C8.70752 27.9901 8.19273 27.1651 8.19273 26.2851V24.3326C3.75081 23.9064 0.838562 20.8539 0.838562 16.4814V8.23138C0.838562 3.50138 4.23619 0.325127 9.29585 0.325127H24.0042C29.0639 0.325127 32.4615 3.50138 32.4615 8.23138V16.4814C32.4615 21.2114 29.0639 24.3876 24.0042 24.3876H18.4591L12.1934 28.2926C11.7669 28.5539 11.2668 28.6914 10.7667 28.6914ZM9.29585 2.37388C5.5011 2.37388 3.04481 4.67013 3.04481 8.21763V16.4676C3.04481 20.0151 5.5011 22.3114 9.29585 22.3114C9.8989 22.3114 10.399 22.7789 10.399 23.3426V26.2714C10.399 26.4501 10.5166 26.5326 10.5902 26.5739C10.6637 26.6151 10.8108 26.6564 10.9726 26.5601L17.5178 22.4901C17.6943 22.3801 17.9149 22.3114 18.1356 22.3114H24.0189C27.8136 22.3114 30.2699 20.0151 30.2699 16.4676V8.21763C30.2699 4.67013 27.8136 2.37388 24.0189 2.37388H9.29585Z" fill="white"/>
<path d="M16.65 14.6513C16.047 14.6513 15.5469 14.1838 15.5469 13.62V13.3313C15.5469 11.7363 16.7971 10.9525 17.2677 10.65C17.812 10.3063 17.9885 10.0725 17.9885 9.715C17.9885 9.0275 17.3854 8.46375 16.65 8.46375C15.9146 8.46375 15.3115 9.0275 15.3115 9.715C15.3115 10.2788 14.8115 10.7463 14.2084 10.7463C13.6054 10.7463 13.1053 10.2788 13.1053 9.715C13.1053 7.88625 14.6938 6.40125 16.65 6.40125C18.6062 6.40125 20.1947 7.88625 20.1947 9.715C20.1947 11.2825 18.9592 12.0663 18.5032 12.355C17.9296 12.7125 17.7531 12.9463 17.7531 13.3313V13.62C17.7531 14.1975 17.253 14.6513 16.65 14.6513ZM16.65 18.0778C16.5053 18.0779 16.362 18.0515 16.2283 17.9999C16.0946 17.9483 15.973 17.8726 15.8706 17.7771C15.7681 17.6816 15.6868 17.5681 15.6313 17.4433C15.5757 17.3184 15.5471 17.1845 15.5469 17.0493C15.5467 16.914 15.575 16.7801 15.6302 16.655C15.6853 16.53 15.7663 16.4164 15.8685 16.3206C15.9707 16.2249 16.092 16.1488 16.2256 16.0969C16.3592 16.045 16.5024 16.0182 16.6471 16.018C16.9392 16.0176 17.2196 16.1258 17.4265 16.3187C17.6333 16.5116 17.7498 16.7734 17.7502 17.0465C17.7506 17.3196 17.6349 17.5817 17.4286 17.7751C17.2222 17.9685 16.9422 18.0774 16.65 18.0778Z" fill="white"/>
</svg>
