<svg width="31" height="29" viewBox="0 0 31 29" fill="none" xmlns="http://www.w3.org/2000/svg">
<path d="M20.4155 28.6213H20.2243C13.6938 28.6213 10.5462 26.215 10.002 20.825C9.94314 20.2613 10.3844 19.7525 11.0021 19.6975C11.5905 19.6425 12.1494 20.0688 12.2082 20.6325C12.6348 24.95 14.8116 26.5588 20.239 26.5588H20.4302C26.4165 26.5588 28.5345 24.5788 28.5345 18.9825V10.0175C28.5345 4.42125 26.4165 2.44125 20.4302 2.44125H20.239C14.7822 2.44125 12.6053 4.0775 12.2082 8.4775C12.1347 9.04125 11.6199 9.4675 11.0021 9.4125C10.8572 9.40192 10.7159 9.36468 10.5863 9.30292C10.4568 9.24117 10.3416 9.15611 10.2473 9.05264C10.153 8.94916 10.0815 8.8293 10.0369 8.69993C9.99226 8.57056 9.9754 8.43423 9.98727 8.29875C10.4873 2.82625 13.6496 0.378754 20.2243 0.378754H20.4155C27.6373 0.378754 30.726 3.26625 30.726 10.0175V18.9825C30.726 25.7338 27.6373 28.6213 20.4155 28.6213Z" fill="white"/>
<path d="M20.0625 15.5312H3.32444C2.7214 15.5312 2.22131 15.0637 2.22131 14.5C2.22131 13.9363 2.7214 13.4688 3.32444 13.4688H20.0625C20.6656 13.4688 21.1656 13.9363 21.1656 14.5C21.1656 15.0637 20.6656 15.5312 20.0625 15.5312Z" fill="white"/>
<path d="M6.60437 20.1375C6.32491 20.1375 6.04545 20.0412 5.82483 19.835L0.897534 15.2287C0.692382 15.0347 0.577332 14.7728 0.577332 14.5C0.577332 14.2272 0.692382 13.9653 0.897534 13.7712L5.82483 9.165C6.25137 8.76625 6.95737 8.76625 7.38391 9.165C7.81045 9.56375 7.81045 10.2237 7.38391 10.6225L3.23616 14.5L7.38391 18.3775C7.81045 18.7762 7.81045 19.4362 7.38391 19.835C7.17799 20.0412 6.88383 20.1375 6.60437 20.1375Z" fill="white"/>
</svg>
