<svg width="33" height="29" viewBox="0 0 33 29" fill="none" xmlns="http://www.w3.org/2000/svg">
<path d="M16.65 19.6562C13.6054 19.6562 11.1344 17.3462 11.1344 14.5C11.1344 11.6538 13.6054 9.34375 16.65 9.34375C19.6946 9.34375 22.1656 11.6538 22.1656 14.5C22.1656 17.3462 19.6946 19.6562 16.65 19.6562ZM16.65 11.4062C14.8262 11.4062 13.3406 12.795 13.3406 14.5C13.3406 16.205 14.8262 17.5938 16.65 17.5938C18.4739 17.5938 19.9594 16.205 19.9594 14.5C19.9594 12.795 18.4739 11.4062 16.65 11.4062Z" fill="white"/>
<path d="M21.3714 28.5113C21.0625 28.5113 20.7536 28.47 20.4448 28.4013C19.5329 28.1675 18.768 27.6313 18.2826 26.875L18.1061 26.6C17.2384 25.1975 16.047 25.1975 15.1792 26.6L15.0174 26.8613C14.532 27.6313 13.7672 28.1813 12.8553 28.4013C11.9286 28.635 10.9726 28.5113 10.1636 28.0575L7.63381 26.6963C7.18929 26.4581 6.79935 26.1405 6.48628 25.7613C6.17321 25.3822 5.94316 24.9491 5.80928 24.4869C5.67541 24.0246 5.64034 23.5421 5.70607 23.0671C5.77181 22.5922 5.93707 22.134 6.1924 21.7188C6.61894 21.0175 6.7366 20.385 6.48656 19.9863C6.23652 19.5875 5.60406 19.3538 4.73627 19.3538C2.58885 19.3538 0.838562 17.7175 0.838562 15.71V13.29C0.838562 11.2825 2.58885 9.64625 4.73627 9.64625C5.60406 9.64625 6.23652 9.4125 6.48656 9.01375C6.7366 8.615 6.63365 7.9825 6.1924 7.28125C5.6776 6.4425 5.54523 5.4525 5.80998 4.5175C6.07473 3.56875 6.7219 2.785 7.63381 2.30375L10.1784 0.942501C11.8404 0.021251 14.0319 0.557501 15.0321 2.13875L15.2086 2.41375C16.0764 3.81625 17.2678 3.81625 18.1356 2.41375L18.2974 2.1525C19.2975 0.557501 21.4891 0.021251 23.1658 0.956251L25.6956 2.3175C26.1402 2.5556 26.5301 2.8733 26.8432 3.2524C27.1562 3.63151 27.3863 4.0646 27.5202 4.5269C27.6541 4.98919 27.6891 5.47162 27.6234 5.9466C27.5576 6.42158 27.3924 6.87978 27.1371 7.295C26.7105 7.99625 26.5929 8.62875 26.8429 9.0275C27.0929 9.42625 27.7254 9.66 28.5932 9.66C30.7406 9.66 32.4909 11.2963 32.4909 13.3038V15.7238C32.4909 17.7313 30.7406 19.3675 28.5932 19.3675C27.7254 19.3675 27.0929 19.6013 26.8429 20C26.5929 20.3988 26.6958 21.0313 27.1371 21.7325C27.6519 22.5713 27.7989 23.5613 27.5195 24.4963C27.3916 24.9615 27.164 25.3975 26.8505 25.7781C26.537 26.1586 26.1441 26.4756 25.6956 26.71L23.1511 28.0713C22.5922 28.36 21.9891 28.5113 21.3714 28.5113ZM16.65 23.4238C17.9591 23.4238 19.1799 24.1938 20.0182 25.555L20.18 25.8162C20.3565 26.105 20.6507 26.3112 21.0037 26.3937C21.3567 26.4762 21.7097 26.435 22.0039 26.27L24.5484 24.895C24.9367 24.6856 25.221 24.3414 25.3394 23.9372C25.4578 23.533 25.4009 23.1014 25.1809 22.7363C24.3425 21.3888 24.2395 20 24.8867 18.9412C25.5339 17.8825 26.8723 17.2775 28.5491 17.2775C29.4904 17.2775 30.2405 16.5763 30.2405 15.6963V13.2763C30.2405 12.41 29.4904 11.695 28.5491 11.695C26.8723 11.695 25.5339 11.09 24.8867 10.0313C24.2395 8.9725 24.3425 7.58375 25.1809 6.23625C25.4015 5.87875 25.4603 5.4525 25.3426 5.04C25.225 4.6275 24.9455 4.2975 24.5631 4.0775L22.0186 2.71625C21.8651 2.6321 21.6953 2.57709 21.519 2.55435C21.3427 2.53162 21.1634 2.54161 20.9913 2.58376C20.8191 2.62591 20.6576 2.69938 20.5158 2.79998C20.3741 2.90057 20.255 3.02631 20.1653 3.17L20.0035 3.43125C19.1651 4.7925 17.9444 5.5625 16.6353 5.5625C15.3263 5.5625 14.1055 4.7925 13.2671 3.43125L13.1053 3.15625C12.9225 2.87525 12.6297 2.67203 12.289 2.58985C11.9484 2.50767 11.5869 2.55302 11.2815 2.71625L8.73694 4.09125C8.3486 4.30066 8.06435 4.64485 7.94592 5.04906C7.8275 5.45327 7.88448 5.88484 8.10448 6.25C8.94285 7.5975 9.04581 8.98625 8.39864 10.045C7.75148 11.1038 6.41302 11.7088 4.73627 11.7088C3.79494 11.7088 3.04481 12.41 3.04481 13.29V15.71C3.04481 16.5763 3.79494 17.2913 4.73627 17.2913C6.41302 17.2913 7.75148 17.8963 8.39864 18.955C9.04581 20.0138 8.94285 21.4025 8.10448 22.75C7.88385 23.1075 7.82502 23.5338 7.94269 23.9463C8.06035 24.3588 8.33981 24.6888 8.72223 24.9088L11.2668 26.27C11.5756 26.4487 11.9434 26.49 12.2816 26.4075C12.6346 26.325 12.9288 26.105 13.12 25.8162L13.2818 25.555C14.1202 24.2075 15.341 23.4238 16.65 23.4238Z" fill="white"/>
</svg>
