<svg width="33" height="31" viewBox="0 0 33 31" fill="none" xmlns="http://www.w3.org/2000/svg">
<path d="M21.7979 20.6562C21.5332 20.6562 21.239 20.6425 20.9596 20.6287C20.6946 20.6127 20.4448 20.5079 20.2557 20.3337C20.0666 20.1595 19.951 19.9274 19.93 19.68C19.6064 15.8438 16.2676 12.7363 12.1787 12.4338C11.914 12.4141 11.6658 12.306 11.4794 12.1293C11.2931 11.9525 11.181 11.7189 11.1638 11.4712C11.1491 11.21 11.1344 10.9487 11.1344 10.6875C11.1344 5.1875 15.9146 0.71875 21.7979 0.71875C27.6813 0.71875 32.4615 5.1875 32.4615 10.6875C32.4615 16.1875 27.6813 20.6562 21.7979 20.6562ZM13.3406 10.495C17.7237 11.21 21.239 14.4963 22.0039 18.5938C24.2104 18.5418 26.3079 17.6861 27.8493 16.2092C29.3907 14.7323 30.254 12.7509 30.2552 10.6875C30.2552 6.32875 26.4605 2.78125 21.7979 2.78125C17.2089 2.78125 13.4583 6.21875 13.3406 10.495Z" fill="white"/>
<path d="M11.5021 30.2812C5.61872 30.2812 0.838512 25.8125 0.838512 20.3125C0.839113 18.9374 1.14384 17.5772 1.73355 16.3174C2.32326 15.0576 3.18522 13.9254 4.26531 12.9918C5.3454 12.0583 6.62029 11.3436 8.00992 10.8926C9.39955 10.4417 10.8739 10.2642 12.3404 10.3713C17.5325 10.7563 21.7391 14.6888 22.1362 19.515C22.1509 19.79 22.1656 20.0513 22.1656 20.3125C22.1656 25.8125 17.3854 30.2812 11.5021 30.2812ZM11.5021 12.4062C6.83951 12.4062 3.04476 15.9537 3.04476 20.3125C3.04476 24.6713 6.83951 28.2188 11.5021 28.2188C12.6704 28.2172 13.8257 27.9896 14.8954 27.5503C15.9651 27.111 16.9259 26.4695 17.7175 25.6662C18.5091 24.8629 19.1143 23.9152 19.4951 22.8826C19.8758 21.85 20.0239 20.7549 19.9299 19.6662C19.6063 15.8575 16.2823 12.7363 12.1786 12.4338C11.9727 12.42 11.7374 12.4062 11.5021 12.4062ZM3.41247 9.0925C3.07374 9.09488 2.73789 9.03426 2.42446 8.91418C2.11102 8.7941 1.82626 8.61695 1.58673 8.39303C1.34721 8.16911 1.15771 7.9029 1.02926 7.60989C0.900807 7.31687 0.835967 7.00291 0.838512 6.68625V3.125C0.838512 1.805 2.00047 0.71875 3.41247 0.71875H7.22193C7.73148 0.718669 8.22962 0.859812 8.65338 1.12434C9.07713 1.38887 9.40749 1.7649 9.60269 2.20491C9.79789 2.64492 9.84916 3.12916 9.75003 3.5964C9.6509 4.06365 9.40582 4.49294 9.04576 4.83L5.2363 8.39125C4.73622 8.845 4.08905 9.0925 3.41247 9.0925ZM3.41247 2.78125C3.20655 2.78125 3.04476 2.9325 3.04476 3.125V6.68625C3.04476 6.8925 3.19185 6.975 3.26539 7.0025C3.35364 7.03 3.51543 7.07125 3.66251 6.93375L7.47197 3.3725C7.61905 3.235 7.58964 3.08375 7.54551 3.00125C7.50139 2.91875 7.41314 2.795 7.20722 2.795H3.41247V2.78125ZM29.886 30.2799H26.0765C25.567 30.28 25.0689 30.1388 24.6451 29.8743C24.2213 29.6098 23.891 29.2337 23.6958 28.7937C23.5006 28.3537 23.4493 27.8695 23.5484 27.4022C23.6476 26.935 23.8926 26.5057 24.2527 26.1686L28.0622 22.6074C28.7976 21.9199 29.9007 21.7136 30.8715 22.0849C31.8422 22.4561 32.46 23.3361 32.46 24.3124V27.8736C32.46 29.1936 31.298 30.2799 29.886 30.2799ZM29.8713 23.9686C29.8238 23.9703 29.7772 23.9809 29.7343 23.9998C29.6913 24.0187 29.6529 24.0455 29.6213 24.0786L25.8118 27.6399C25.6647 27.7774 25.6941 27.9286 25.7383 28.0111C25.7824 28.0936 25.8706 28.2174 26.0765 28.2174H29.886C30.0919 28.2174 30.2537 28.0661 30.2537 27.8736V24.3124C30.2537 24.1061 30.1066 24.0236 30.0331 23.9961C29.981 23.9791 29.9264 23.9699 29.8713 23.9686Z" fill="white"/>
</svg>
