            <svg
              width="33"
              height="31"
              viewBox="0 0 33 31"
              fill="none"
              xmlns="http://www.w3.org/2000/svg"
            >
              <path
                d="M24.0926 30.2812H7.20743C3.54506 30.2812 0.573975 27.5037 0.573975 24.08V14.8263C0.573975 11.4025 3.54506 8.625 7.20743 8.625H24.0926C27.755 8.625 30.7261 11.4025 30.7261 14.8263V16.8062C30.7261 17.37 30.226 17.8375 29.6229 17.8375H26.6518C26.1371 17.8375 25.6664 18.0162 25.3281 18.3462L25.3134 18.36C24.9016 18.7312 24.7104 19.24 24.7545 19.7625C24.8427 20.67 25.7694 21.3988 26.8284 21.3988H29.6229C30.226 21.3988 30.7261 21.8663 30.7261 22.43V24.0662C30.7261 27.5037 27.755 30.2812 24.0926 30.2812ZM7.20743 10.6875C4.76585 10.6875 2.78022 12.5438 2.78022 14.8263V24.08C2.78022 26.3625 4.76585 28.2188 7.20743 28.2188H24.0926C26.5342 28.2188 28.5198 26.3625 28.5198 24.08V23.475H26.8284C24.6074 23.475 22.7247 21.935 22.5482 19.955C22.4306 18.8275 22.8718 17.7138 23.7543 16.9025C24.5191 16.1738 25.5487 15.775 26.6518 15.775H28.5198V14.8263C28.5198 12.5438 26.5342 10.6875 24.0926 10.6875H7.20743Z"
                fill="white"
              />
              <path
                d="M1.6771 17.095C1.07406 17.095 0.573975 16.6275 0.573975 16.0637V9.78C0.573975 7.73125 1.95656 5.875 4.00102 5.14625L15.6794 1.02125C16.8855 0.594998 18.224 0.746248 19.2683 1.43375C20.3273 2.12125 20.945 3.235 20.945 4.43125V9.65625C20.945 10.22 20.4449 10.6875 19.8419 10.6875C19.2388 10.6875 18.7388 10.22 18.7388 9.65625V4.43125C18.7388 3.90875 18.474 3.4275 18.0033 3.125C17.5327 2.8225 16.9738 2.75375 16.4443 2.94625L4.76585 7.07125C3.57447 7.4975 2.76552 8.58375 2.76552 9.78V16.0637C2.78022 16.6412 2.28014 17.095 1.6771 17.095ZM26.8269 23.475C24.6059 23.475 22.7233 21.935 22.5468 19.955C22.4291 18.8137 22.8703 17.7 23.7528 16.8887C24.503 16.1737 25.5325 15.775 26.6357 15.775H29.695C31.1511 15.8162 32.269 16.8887 32.269 18.2087V21.0412C32.269 22.3612 31.1511 23.4337 29.7391 23.475H26.8269ZM29.6656 17.8375H26.6504C26.1356 17.8375 25.6649 18.0162 25.3266 18.3462C24.9001 18.7312 24.6942 19.2537 24.753 19.7762C24.8413 20.6837 25.7679 21.4125 26.8269 21.4125H29.7097C29.9009 21.4125 30.0774 21.2475 30.0774 21.0412V18.2087C30.0774 18.0025 29.9009 17.8512 29.6656 17.8375Z"
                fill="white"
              />
              <path
                d="M18.5916 16.5312H8.29581C7.69277 16.5312 7.19269 16.0638 7.19269 15.5C7.19269 14.9363 7.69277 14.4688 8.29581 14.4688H18.5916C19.1947 14.4688 19.6948 14.9363 19.6948 15.5C19.6948 16.0638 19.1947 16.5312 18.5916 16.5312Z"
                fill="white"
              />
            </svg>