<svg
  width="21"
  height="21"
  viewBox="0 0 21 21"
  fill="none"
  xmlns="http://www.w3.org/2000/svg"
>
    <path
      d="M10.0208 19.8438C4.60624 19.8438 0.197906 15.4354 0.197906 10.0209C0.197906 4.60627 4.60624 0.197937 10.0208 0.197937C15.4354 0.197937 19.8437 4.60627 19.8437 10.0209C19.8437 15.4354 15.4354 19.8438 10.0208 19.8438ZM10.0208 1.63544C5.39207 1.63544 1.63541 5.40169 1.63541 10.0209C1.63541 14.64 5.39207 18.4063 10.0208 18.4063C14.6496 18.4063 18.4062 14.64 18.4062 10.0209C18.4062 5.40169 14.6496 1.63544 10.0208 1.63544ZM20.0833 20.8031C19.9012 20.8031 19.7192 20.736 19.5754 20.5922L17.6587 18.6756C17.5251 18.5403 17.4501 18.3578 17.4501 18.1676C17.4501 17.9775 17.5251 17.795 17.6587 17.6597C17.9367 17.3818 18.3967 17.3818 18.6746 17.6597L20.5912 19.5764C20.8692 19.8543 20.8692 20.3143 20.5912 20.5922C20.4475 20.736 20.2654 20.8031 20.0833 20.8031Z"
      fill="#CFD6DD"
    />
</svg>
